<svg xmlns="http://www.w3.org/2000/svg" width="14" height="14" fill="none"><path fill="#fff" d="M6.968.25c.898.032 1.8282.032 2.7263.0641.8019.0321 1.5396.1604 2.2452.5774.8981.5453 1.4434 1.3471 1.6359 2.3735.0962.6095.1283 1.251.1603 1.8604.0321 1.3472 0 2.6943 0 4.0414 0 .7057-.032 1.4113-.2566 2.0849-.449 1.3151-1.3792 2.117-2.7263 2.3736-.6095.1283-1.251.1283-1.8604.1603-1.3471.0321-2.6622 0-4.0094 0-.7056 0-1.4112-.032-2.0848-.2566C1.483 13.08.6812 12.1498.4246 10.8027c-.1283-.6095-.1283-1.251-.1603-1.8604-.0321-1.3471 0-2.6943 0-4.0414 0-.7057.032-1.4113.2566-2.0849C.9699 1.501 1.9.699 3.2472.4425 3.8567.314 4.4982.314 5.1076.282 5.6849.25 6.3264.25 6.9679.25Zm5.5489 6.6395c-.0321 0 0 0 0 0-.0321-.5453-.0321-1.0584-.0321-1.6037 0-.5132-.0321-1.0264-.0962-1.5396-.1283-1.1547-.8019-1.9245-1.9245-2.149-.5774-.1283-1.2188-.1283-1.7962-.1283a61.2068 61.2068 0 0 0-3.432 0c-.5774 0-1.1547.032-1.7.1282-.9622.1604-1.6358.7057-1.9245 1.668-.0962.3207-.1283.6415-.1604.9622-.032 1.2189-.032 2.4377-.032 3.6566 0 .7698.032 1.5716.0962 2.3414.0962 1.1547.8018 1.9566 1.9566 2.149.5773.0963 1.1867.1283 1.7961.1283 1.1227.0321 2.2453 0 3.4 0 .5132 0 1.0264-.032 1.5396-.0962.4811-.0321.9302-.1924 1.3151-.5132.6415-.5132.866-1.1868.8981-1.9566.0641-.9622.0641-2.0207.0962-3.047Z"/><path fill="#fff" d="M10.4321 7.0178c0 1.9245-1.5396 3.4641-3.4641 3.4641S3.504 8.9423 3.504 6.9857c0-1.8924 1.5716-3.432 3.496-3.432 1.8925 0 3.4321 1.5396 3.4321 3.4641ZM6.9359 9.2631c1.2189 0 2.2453-1.0264 2.2453-2.2453 0-1.2188-1.0264-2.2452-2.2453-2.2452-1.2509 0-2.2452 1.0264-2.2452 2.2452 0 1.2189 1.0264 2.2453 2.2452 2.2453ZM11.3625 3.3937c0 .449-.3529.834-.8019.834-.4491 0-.834-.385-.8019-.834 0-.449.3528-.8019.8019-.8019.449 0 .8019.3528.8019.8019Z"/></svg>