<svg xmlns="http://www.w3.org/2000/svg" width="14" height="12" fill="none"><path fill="#fff" d="M13.75.7172c-.0366.3294-.1098.6955-.183 1.025L11.7 10.528c-.0366.183-.0732.3294-.1465.4759-.1464.2562-.366.3294-.6589.2562-.183-.0366-.3295-.1098-.4759-.2196-.9518-.6956-1.867-1.3911-2.8188-2.0866-.1098-.0733-.183-.0733-.2928.0366-.476.4393-.9152.9151-1.3911 1.3544-.183.1831-.366.2929-.6223.2563-.183 0-.2929-.0732-.3295-.2563-.2929-.9151-.5857-1.7937-.8786-2.709-.1098-.2928-.2196-.6222-.2928-.9151-.0367-.1098-.0733-.183-.2197-.2196-.9152-.2929-1.8304-.5858-2.7456-.842-.1098-.0366-.2562-.0732-.366-.1465-.2563-.1464-.2929-.366-.0366-.5857.1464-.1464.3294-.2196.549-.2928l3.734-1.4277c2.709-1.025 5.3813-2.0867 8.0903-3.1117.0366 0 .0366 0 .0732-.0366.5125-.183.8786.0732.8786.659Zm-8.4197 9.042c.0366-.0366.0366-.0732.0366-.0732.0732-.659.1098-1.3179.183-1.9768 0-.1464.0732-.2929.183-.4027l5.2715-4.7223c.1099-.1099.2197-.183.3295-.293.0366-.0365.1098-.0731.0732-.1463-.0366-.0732-.1098-.0732-.183-.0732-.1464 0-.2563.0732-.3661.1464-2.1598 1.3544-4.3197 2.709-6.4795 4.1-.1098.0732-.1464.1464-.1098.2929.2562.8053.5125 1.6107.8053 2.416.0732.1831.1464.4394.2563.7322Z"/></svg>